<svg viewBox="0 0 12 13">
    <path stroke-linejoin="miter" stroke-linecap="butt" stroke-width="1" stroke="currentColor" fill="none" fill-rule="evenodd" d="M 1.71 5.5 C 1.71 4.77 1.71 5.5 1.71 5.5 C 1.71 3.01 3.89 0.49 6 0 L 6 0 L 6 0 C 8.37 0.55 10.29 3.24 10.29 5.5 C 10.29 5.5 10.29 4.59 10.29 5.5 C 10.29 5.64 12 10 12 10 L 0 10 C 0 10 1.71 6.27 1.71 5.5 Z M 1.71 5.5" />
    <path stroke-linejoin="miter" stroke-linecap="butt" stroke-width="1" stroke="currentColor" fill="none" fill-rule="evenodd" d="M 6 12 C 6.55 12 7 11.55 7 11 C 7 10.45 6.55 10 6 10 C 5.45 10 5 10.45 5 11 C 5 11.55 5.45 12 6 12 Z M 6 12" />
</svg>
