<svg viewBox="0 0 61 39">
    <path stroke-linejoin="round" stroke-linecap="round" stroke-width="3" stroke="currentColor" fill="none" fill-rule="evenodd" d="M 16.41 2 L 25.34 2 C 26.44 2 27.75 2.79 28.27 3.78 L 34.32 15.39 C 35.34 17.35 34.96 17.62 33.33 16.13 C 33.33 16.13 30.13 11.51 24.08 12.91 C 21.13 13.59 15.25 16.97 10.83 20.33 C 6.42 23.7 2 24.04 2 24.04 C 8.04 25.9 24.08 18.47 24.78 25.2 C 25.48 31.93 15.52 29.56 15.52 29.56 C 14.98 29.46 14.89 29.66 15.36 29.98 C 15.36 29.98 17.81 32.4 24.08 31.93 C 30.36 31.47 33.85 26.6 40.59 25.9 C 47.33 25.2 55 26.83 55 26.83" />
    <path stroke-linejoin="miter" stroke-linecap="butt" stroke-width="3" stroke="currentColor" fill="none" fill-rule="evenodd" d="M 38 37 C 39.66 37 41 35.66 41 34 C 41 32.34 39.66 31 38 31 C 36.34 31 35 32.34 35 34 C 35 35.66 36.34 37 38 37 Z M 38 37" />
    <path stroke-linejoin="miter" stroke-linecap="butt" stroke-width="3" stroke="currentColor" fill="none" fill-rule="evenodd" d="M 50 37 C 51.66 37 53 35.66 53 34 C 53 32.34 51.66 31 50 31 C 48.34 31 47 32.34 47 34 C 47 35.66 48.34 37 50 37 Z M 50 37" />
    <path stroke-linejoin="round" stroke-linecap="round" stroke-width="3" stroke="currentColor" fill="none" fill-rule="evenodd" d="M 30 7 L 57.48 7 C 59.14 7 59.88 8.19 59.13 9.68 L 55.33 17.22 C 54.84 18.2 53.55 19 52.42 19 L 42.1 19" />
</svg>
