<?xml version="1.0" encoding="utf-8"?>
<!-- Generator: Avocode 2.6.0 - http://avocode.com -->
<svg height="12" width="13" xmlns:xlink="http://www.w3.org/1999/xlink" xmlns="http://www.w3.org/2000/svg" viewBox="0 0 13 12">
    <path fill="#ff5b00" fill-rule="evenodd" d="M 2 0 C 0.9 0 0 0.9 0 2.01 L 0 9.99 C 0 11.1 0.89 12 2 12 L 11 12 C 12.1 12 13 11.1 13 9.99 L 13 2.01 C 13 0.9 12.11 0 11 0 L 2 0 Z M 1.94 1 C 1.38 1 0.93 1.46 0.93 2 L 0.93 10 C 0.93 10.55 1.38 11 1.94 11 L 11.06 11 C 11.62 11 12.07 10.54 12.07 10 L 12.07 2 C 12.07 1.45 11.62 1 11.06 1 L 1.94 1 Z M 1.94 1" />
    <path stroke-linejoin="round" stroke-linecap="round" stroke-width="1" stroke="#ff5b00" fill="none" fill-rule="evenodd" d="M 2.5 3 L 6.5 7.5 L 10.5 3" />
</svg>