<?xml version="1.0" encoding="utf-8"?>
<!-- Generator: Avocode 2.6.0 - http://avocode.com -->
<svg height="10" width="14" xmlns:xlink="http://www.w3.org/1999/xlink" xmlns="http://www.w3.org/2000/svg" viewBox="0 0 14 10">
    <path fill="#050914" fill-rule="evenodd" d="M 0 0 L 2 0 L 2 2 L 0 2 L 0 0 Z M 0 0" />
    <path fill="#050914" fill-rule="evenodd" d="M 0 4 L 2 4 L 2 6 L 0 6 L 0 4 Z M 0 4" />
    <path fill="#050914" fill-rule="evenodd" d="M 0 8 L 2 8 L 2 10 L 0 10 L 0 8 Z M 0 8" />
    <path fill="#050914" fill-rule="evenodd" d="M 4 0 L 14 0 L 14 2 L 4 2 L 4 0 Z M 4 0" />
    <path fill="#050914" fill-rule="evenodd" d="M 4 4 L 14 4 L 14 6 L 4 6 L 4 4 Z M 4 4" />
    <path fill="#050914" fill-rule="evenodd" d="M 4 8 L 14 8 L 14 10 L 4 10 L 4 8 Z M 4 8" />
</svg>