<svg viewBox="0 0 16 16">
    <path fill="#12a5f4" fill-rule="evenodd" d="M 15.31 8.04 C 15.31 3.94 12.02 0.62 7.96 0.62 C 7.56 0.62 7.16 0.66 6.78 0.72 C 6.09 0.27 5.27 0 4.38 0 C 1.96 0 0 1.99 0 4.45 C 0 5.34 0.26 6.17 0.71 6.87 C 0.65 7.25 0.62 7.64 0.62 8.04 C 0.62 12.13 3.9 15.45 7.96 15.45 C 8.42 15.45 8.87 15.41 9.3 15.33 C 9.97 15.75 10.77 16 11.62 16 C 14.04 16 16 14.01 16 11.55 C 16 10.62 15.72 9.76 15.24 9.05 C 15.28 8.72 15.31 8.38 15.31 8.04 Z M 4.98 11.56 C 4.09 10.7 4.45 9.73 5.17 9.68 C 5.9 9.63 6.34 10.52 6.73 10.76 C 7.11 11.01 8.59 11.57 9.37 10.67 C 10.22 9.68 8.8 9.16 7.77 9.01 C 6.29 8.79 4.42 7.97 4.57 6.36 C 4.71 4.76 5.91 3.93 7.16 3.82 C 8.76 3.67 9.8 4.07 10.63 4.78 C 11.58 5.61 11.06 6.54 10.46 6.61 C 9.85 6.69 9.17 5.25 7.84 5.23 C 6.47 5.21 5.54 6.69 7.23 7.11 C 8.93 7.53 10.75 7.7 11.4 9.28 C 12.06 10.86 10.39 12.54 8.52 12.64 C 6.65 12.74 5.78 12.32 4.98 11.56 Z M 4.98 11.56" />
</svg>
