<?xml version="1.0" encoding="utf-8"?>
<!-- Generator: Avocode 2.6.0 - http://avocode.com -->
<svg height="13" width="14" xmlns:xlink="http://www.w3.org/1999/xlink" xmlns="http://www.w3.org/2000/svg" viewBox="0 0 14 13">
    <path fill="#ff5b00" fill-rule="evenodd" d="M 6 12 C 9.31 12 12 9.31 12 6 C 12 2.69 9.31 0 6 0 C 2.69 0 0 2.69 0 6 C 0 9.31 2.69 12 6 12 Z M 6 11 C 8.76 11 11 8.76 11 6 C 11 3.24 8.76 1 6 1 C 3.24 1 1 3.24 1 6 C 1 8.76 3.24 11 6 11 Z M 6 6 L 6 7 L 8 7 L 8 6 L 6 6 Z M 5 4 L 5 7 L 6 7 L 6 4 L 5 4 Z M 5 4" />
    <path fill="#ff5b00" fill-rule="evenodd" d="M 7 6 L 14 6 L 14 13 L 7 13 L 7 6 Z M 7 6" />
    <path stroke-linejoin="round" stroke-linecap="round" stroke-width="1" stroke="#ffffff" fill="none" fill-rule="evenodd" d="M 8 9.76 L 9.52 11 L 12 8" />
</svg>