<?xml version="1.0" encoding="utf-8"?>
<!-- Generator: Avocode 2.6.0 - http://avocode.com -->
<svg height="10" width="13" xmlns:xlink="http://www.w3.org/1999/xlink" xmlns="http://www.w3.org/2000/svg" viewBox="0 0 13 10">
    <path fill="#838383" fill-rule="evenodd" d="M 0 1 L 13 1 L 13 2 L 0 2 L 0 1 Z M 0 1" />
    <path fill="#838383" fill-rule="evenodd" d="M 1 0 L 2 0 L 2 3 L 1 3 L 1 0 Z M 1 0" />
    <path fill="#838383" fill-rule="evenodd" d="M 3 3 L 13 3 L 13 4 L 3 4 L 3 3 Z M 3 3" />
    <path fill="#838383" fill-rule="evenodd" d="M 3 5 L 13 5 L 13 6 L 3 6 L 3 5 Z M 3 5" />
    <path fill="#838383" fill-rule="evenodd" d="M 3 7 L 13 7 L 13 8 L 3 8 L 3 7 Z M 3 7" />
    <path fill="#838383" fill-rule="evenodd" d="M 3 9 L 13 9 L 13 10 L 3 10 L 3 9 Z M 3 9" />
</svg>