<?xml version="1.0" encoding="utf-8"?>
<!-- Generator: Avocode 2.6.0 - http://avocode.com -->
<svg height="14" width="9" xmlns:xlink="http://www.w3.org/1999/xlink" xmlns="http://www.w3.org/2000/svg" viewBox="0 0 9 14">
    <path fill="#ff5b00" fill-rule="evenodd" d="M 4.5 7 C 2.57 7 1 5.43 1 3.5 C 1 1.57 2.57 0 4.5 0 C 6.43 0 8 1.57 8 3.5 C 8 5.43 6.43 7 4.5 7 L 4.5 7 Z M 4.5 1.17 C 3.21 1.17 2.17 2.21 2.17 3.5 C 2.17 4.79 3.21 5.83 4.5 5.83 C 5.79 5.83 6.83 4.79 6.83 3.5 C 6.83 2.21 5.79 1.17 4.5 1.17 L 4.5 1.17 Z M 4.5 1.17" />
    <path fill="#ff5b00" fill-rule="evenodd" d="M 4.54 9 C 3.56 9 2.35 8.3 2.3 8.27 C 2.04 8.11 1.93 7.72 2.05 7.39 C 2.17 7.05 2.47 6.91 2.73 7.06 C 3.03 7.23 3.92 7.67 4.54 7.67 C 5.16 7.67 5.99 7.24 6.25 7.07 C 6.51 6.91 6.82 7.04 6.95 7.37 C 7.07 7.7 6.97 8.1 6.71 8.26 C 6.66 8.29 5.53 9 4.54 9 L 4.54 9 Z M 4.54 9" />
    <path fill="#ff5b00" fill-rule="evenodd" d="M 6.47 14 L 2.53 14 C 1.14 14 0 12.76 0 11.23 L 0 10.62 C 0 10.28 0.25 10 0.56 10 C 0.87 10 1.12 10.28 1.12 10.62 L 1.12 11.23 C 1.12 12.08 1.76 12.77 2.53 12.77 L 6.47 12.77 C 7.24 12.77 7.88 12.08 7.88 11.23 L 7.88 10.62 C 7.88 10.28 8.13 10 8.44 10 C 8.75 10 9 10.28 9 10.62 L 9 11.23 C 9 12.76 7.86 14 6.47 14 L 6.47 14 Z M 6.47 14" />
    <path fill="#ff5b00" fill-rule="evenodd" d="M 0.56 12 C 0.25 12 0 11.74 0 11.43 L 0 9.33 C 0 8.05 1.04 7 2.31 7 C 2.62 7 2.88 7.26 2.88 7.57 C 2.88 7.89 2.62 8.14 2.31 8.14 C 1.66 8.14 1.13 8.68 1.13 9.33 L 1.13 11.43 C 1.12 11.74 0.87 12 0.56 12 L 0.56 12 Z M 8.44 11.8 C 8.13 11.8 7.87 11.55 7.87 11.23 L 7.87 9.33 C 7.87 8.68 7.34 8.14 6.69 8.14 C 6.38 8.14 6.12 7.89 6.12 7.57 C 6.12 7.26 6.38 7 6.69 7 C 7.96 7 9 8.05 9 9.33 L 9 11.23 C 9 11.55 8.75 11.8 8.44 11.8 L 8.44 11.8 Z M 8.44 11.8" />
</svg>