<?xml version="1.0" encoding="utf-8"?>
<!-- Generator: Avocode 2.6.0 - http://avocode.com -->
<svg height="31" width="1280" xmlns:xlink="http://www.w3.org/1999/xlink" xmlns="http://www.w3.org/2000/svg" viewBox="0 0 1280 31">
    <path fill="#e5e5e5" fill-rule="evenodd" d="M -11 0 L 1311 0 L 1311 31 L -11 31 L -11 0 Z M -11 0" />
    <path stroke-linejoin="miter" stroke-linecap="butt" stroke-width="1" stroke="#000000" fill="none" fill-rule="evenodd" d="M 974.71 14.5 C 974.71 13.77 974.71 14.5 974.71 14.5 C 974.71 12.01 976.89 9.49 979 9 L 979 9 L 979 9 C 981.37 9.55 983.29 12.24 983.29 14.5 C 983.29 14.5 983.29 13.59 983.29 14.5 C 983.29 14.64 985 19 985 19 L 973 19 C 973 19 974.71 15.27 974.71 14.5 Z M 974.71 14.5" />
    <path stroke-linejoin="miter" stroke-linecap="butt" stroke-width="1" stroke="#000000" fill="none" fill-rule="evenodd" d="M 979 21 C 979.55 21 980 20.55 980 20 C 980 19.45 979.55 19 979 19 C 978.45 19 978 19.45 978 20 C 978 20.55 978.45 21 979 21 Z M 979 21" />
</svg>