<svg version="1.1" xmlns="http://www.w3.org/2000/svg" xmlns:xlink="http://www.w3.org/1999/xlink" x="0px" y="0px"
	 width="40px" height="40px" viewBox="0 0 40 40" enable-background="new 0 0 40 40" xml:space="preserve">
<path fill="currentColor" d="M19.79,0C14.439,0.05,9.496,2.22,5.729,6.02c-5.401,5.51-7.155,13.44-4.524,20.701
	c0.149,0.459,0.558,0.719,1.026,0.719c0.1,0,0.259,0,0.359-0.049C3.158,27.18,3.467,26.561,3.258,26
	C0.945,19.51,2.49,12.46,7.273,7.57c3.299-3.4,7.783-5.31,12.517-5.35c0.06,0,0.16,0,0.209,0c4.434,0,8.599,1.59,11.898,4.52h-1.285
	c-0.619,0-1.086,0.52-1.086,1.09c0,0.61,0.518,1.08,1.086,1.08l0,0l3.966-0.06c0.309,0,0.568-0.1,0.768-0.3
	c0.209-0.21,0.309-0.47,0.309-0.78l-0.049-3.96c0-0.62-0.519-1.08-1.077-1.08c-0.627,0-1.086,0.51-1.086,1.08v1.34
	C29.734,1.85,24.991,0,20,0C19.95,0,19.85,0,19.79,0z M20.209,37.74c-4.485,0.05-8.76-1.551-12.108-4.54h1.285
	c0.618,0,1.086-0.511,1.086-1.08c0-0.61-0.519-1.08-1.086-1.08l0,0L5.42,31.09c-0.309,0-0.568,0.11-0.768,0.311
	c-0.209,0.209-0.309,0.47-0.309,0.77l0.05,3.971c0,0.619,0.518,1.08,1.076,1.08l0,0c0.628,0,1.086-0.511,1.086-1.08V34.8
	C10.263,38.15,15.007,40,20,40c0.1,0,0.149,0,0.259,0c5.351-0.05,10.303-2.21,14.061-6.02c5.352-5.561,7.105-13.49,4.474-20.75
	c-0.198-0.57-0.816-0.88-1.384-0.67c-0.568,0.21-0.878,0.83-0.669,1.39c2.313,6.489,0.769,13.54-4.016,18.43
	C29.377,35.779,24.941,37.68,20.209,37.74z"/>
</svg>
